<?xml version="1.0" standalone="no"?>
<!DOCTYPE svg PUBLIC "-//W3C//DTD SVG 20010904//EN"
 "http://www.w3.org/TR/2001/REC-SVG-20010904/DTD/svg10.dtd">
<svg version="1.0" xmlns="http://www.w3.org/2000/svg"
 width="512.000000pt" height="512.000000pt" viewBox="0 0 512.000000 512.000000"
 preserveAspectRatio="xMidYMid meet">
<metadata>
Created by potrace 1.14, written by Peter Selinger 2001-2017
</metadata>
<g transform="translate(0.000000,512.000000) scale(0.100000,-0.100000)"
fill="#000000" stroke="none">
<path d="M1075 3914 c-377 -44 -628 -191 -749 -439 -58 -117 -71 -181 -71
-350 0 -138 2 -156 27 -223 39 -109 84 -177 173 -267 129 -130 290 -227 640
-385 218 -99 286 -133 383 -196 150 -97 220 -193 230 -310 20 -255 -249 -410
-637 -365 -146 17 -241 44 -357 101 -131 63 -233 141 -365 277 l-106 109 -72
-46 c-39 -25 -71 -49 -71 -54 0 -17 248 -256 326 -313 301 -221 675 -303 1084
-236 102 16 243 58 337 99 168 74 326 219 393 358 53 113 65 171 64 311 0 102
-4 131 -26 192 -89 251 -266 396 -759 622 -287 132 -369 173 -465 237 -98 64
-172 143 -211 222 -24 50 -28 69 -28 147 0 78 4 97 28 147 63 129 196 192 402
190 304 -1 579 -126 852 -386 117 -112 100 -110 198 -22 l50 44 -105 104
c-256 250 -531 387 -860 428 -79 9 -237 11 -305 4z m-356 -290 c-43 -63 -70
-146 -76 -235 -16 -228 113 -397 437 -572 47 -25 175 -87 285 -137 370 -169
505 -250 623 -375 100 -104 141 -201 142 -330 1 -191 -122 -383 -325 -505
l-39 -24 37 48 c131 172 110 418 -50 581 -104 105 -234 180 -593 340 -107 47
-229 105 -270 127 -256 139 -397 289 -445 474 -19 75 -19 213 0 288 20 76 77
184 127 240 37 43 150 126 170 126 5 0 -5 -21 -23 -46z"/>
<path d="M2820 2556 l0 -1316 673 0 c416 0 715 4 783 11 151 15 282 50 394
105 77 38 109 61 170 123 84 85 125 158 161 286 30 106 33 316 6 415 -50 183
-173 336 -327 409 l-83 39 61 31 c140 71 241 205 278 367 20 92 15 290 -10
367 -66 206 -229 349 -477 421 -164 48 -176 49 -921 53 l-708 4 0 -1315z m480
-1 l0 -1145 -155 0 -155 0 0 1145 0 1145 155 0 155 0 0 -1145z m880 1135 c47
-6 97 -13 113 -16 l27 -6 -2 -486 -3 -487 -417 -3 -418 -2 0 505 0 505 308 0
c169 0 346 -5 392 -10z m373 -113 c63 -41 128 -110 158 -169 67 -131 66 -337
-2 -470 -30 -58 -110 -140 -169 -172 l-50 -27 0 435 c0 240 2 436 5 436 3 0
29 -15 58 -33z m-235 -1598 c2 -514 1 -547 -15 -555 -10 -4 -199 -10 -420 -12
l-403 -4 0 561 0 561 418 -2 417 -3 3 -546z m267 472 c71 -37 157 -126 195
-200 107 -214 67 -515 -89 -664 -51 -49 -163 -117 -191 -117 -7 0 -10 167 -10
511 l0 510 23 -6 c12 -4 45 -19 72 -34z"/>
</g>
</svg>
